# xmcd
#
# Track frame offsets: 
#        150
#        16893
#        36760
#        47937
#        63001
#        82938
#        102631
#        118385
#        129785
#        142321
#
# Disc length: 2022 seconds
#
# Revision: 0
# Processed by: cddbd v1.5.2PL0 Copyright (c) Steve Scherf et al.
# Submitted via: ExactAudioCopy v1.0b3
#
DISCID=8807e40a
DTITLE=Thousand - 40 miles of rough road
DYEAR=2008
DGENRE=Folk
TTITLE0=The fisherman's tune
TTITLE1=Bad lands
TTITLE2=Firewater blues
TTITLE3=The grass harp
TTITLE4=40 miles
TTITLE5=Down home
TTITLE6=The high life
TTITLE7=Saddle rays
TTITLE8=Shark attack
TTITLE9=A tree, a rock, a cloud
EXTD=
EXTT0=
EXTT1=
EXTT2=
EXTT3=
EXTT4=
EXTT5=
EXTT6=
EXTT7=
EXTT8=
EXTT9=
PLAYORDER=
